{"title":"BBC - Journey to the Center of the Earth The Restless Planet 201","uid":9476364,"size":20676940026,"categoryP":"video","categoryS":"hd___movies","magnet":"?xt=urn:btih:1ad04433e65e40977673037b893251048cd5ab10&amp;dn=BBC+-+Journey+to+the+Center+of+the+Earth+The+Restless+Planet+201&amp;tr=udp%3A%2F%2Ftracker.openbittorrent.com%3A80&amp;tr=udp%3A%2F%2Fopen.demonii.com%3A1337&amp;tr=udp%3A%2F%2Ftracker.coppersurfer.tk%3A6969&amp;tr=udp%3A%2F%2Fexodus.desync.com%3A6969","seeders":8,"leechers":17,"uploader":".alrmothe","files":21,"time":1389707946,"description":" &lt;a href=&quot;http://img46.imageshack.us/img46/7792/glf7.jpg&quot; rel=&quot;nofollow&quot; target=&quot;_NEW&quot;&gt;http://img46.imageshack.us/img46/7792/glf7.jpg&lt;/a&gt;\n******************************************************************************************************************************************************************************\n\nBBC - Journey to the Center of the Earth The Restless Planet 2011 1080p BluRay Remux 3Audio-alrmothe\n\n******************************************************************************************************************************************************************************\n\n----------MEDiA iNFO------------\n\nSOURCE TYPE.....: Journey to the Center of the Earth The Restless Planet 2011.DUAL.COMPLETE.BLURAY-iFPD\nFRAME RATE......: 25 fps\nDISPLAY ASPECT RATIO..: 16:9\nAUDiO...1.......: English DTS-HD Master 5.1 @ 1689 kbps\nAUDiO...2.......: German AC3 2 @ 448 kbps\nAUDiO...3.......: Russian  AC3 2 @ 192 kbps\nRESOLUTiON......: 1920 x 1080\nRUNTIME.........: Land (00:50:03),Ocean (00:48:53)\nRELEASE SIZE....: 19.2 GiB\nCHAPTERS........: Yes\nSUBTiTLE........: NoN\nIMDB............: http://www.imdb.com/title/tt2000152/\nRatings.........: 8.1/10 \nENCODER.........: alrmothe\nRELEASE DATE....: 14/01/2014 . 13/03/1435\n\n\n******************************************************************************************************************************************************************************\n\n\nScreenshots &lt;a href=&quot;\nhttp://img842.imageshack.us/img842/3070/4i9z.png&quot; rel=&quot;nofollow&quot; target=&quot;_NEW&quot;&gt;\nhttp://img842.imageshack.us/img842/3070/4i9z.png&lt;/a&gt; &lt;a href=&quot;\nhttp://img39.imageshack.us/img39/3395/p9ji.png&quot; rel=&quot;nofollow&quot; target=&quot;_NEW&quot;&gt;\nhttp://img39.imageshack.us/img39/3395/p9ji.png&lt;/a&gt; &lt;a href=&quot;\nhttp://img202.imageshack.us/img202/1773/5skj.png&quot; rel=&quot;nofollow&quot; target=&quot;_NEW&quot;&gt;\nhttp://img202.imageshack.us/img202/1773/5skj.png&lt;/a&gt; &lt;a href=&quot;\nhttp://img24.imageshack.us/img24/8149/feu6.png&quot; rel=&quot;nofollow&quot; target=&quot;_NEW&quot;&gt;\nhttp://img24.imageshack.us/img24/8149/feu6.png&lt;/a&gt; &lt;a href=&quot;\nhttp://img849.imageshack.us/img849/7494/33ee.png&quot; rel=&quot;nofollow&quot; target=&quot;_NEW&quot;&gt;\nhttp://img849.imageshack.us/img849/7494/33ee.png&lt;/a&gt; &lt;a href=&quot;\nhttp://img856.imageshack.us/img856/4264/w4ye.png&quot; rel=&quot;nofollow&quot; target=&quot;_NEW&quot;&gt;\nhttp://img856.imageshack.us/img856/4264/w4ye.png&lt;/a&gt; &lt;a href=&quot;\nhttp://img401.imageshack.us/img401/532/eam7.png&quot; rel=&quot;nofollow&quot; target=&quot;_NEW&quot;&gt;\nhttp://img401.imageshack.us/img401/532/eam7.png&lt;/a&gt; &lt;a href=&quot;\nhttp://img194.imageshack.us/img194/1883/9gzo.png&quot; rel=&quot;nofollow&quot; target=&quot;_NEW&quot;&gt;\nhttp://img194.imageshack.us/img194/1883/9gzo.png&lt;/a&gt; &lt;a href=&quot;\nhttp://img191.imageshack.us/img191/7648/trnz.png&quot; rel=&quot;nofollow&quot; target=&quot;_NEW&quot;&gt;\nhttp://img191.imageshack.us/img191/7648/trnz.png&lt;/a&gt;\n******************************************************************************************************************************************************************************\n\n----------Source iNFO------------\n\nDISC INFO:\n\nDisc Title:     EARTH_MACHINE\nDisc Size:      23 060 462 753 bytes\nProtection:     AACS\nBD-Java:        No\nExtras:         50Hz Content\nBDInfo:         0.5.8\n\nPLAYLIST REPORT:\n\nName:                   01004.MPLS\nLength:                 0:50:03.160 (h:m:s.ms)\nSize:                   10 940 497 920 bytes\nTotal Bitrate:          29,14 Mbps\n\nVIDEO:\n\nCodec                   Bitrate             Description     \n-----                   -------             -----------     \nMPEG-4 AVC Video        25711 kbps          1080i / 25 fps / 16:9 / High Profile 4.1\n\nAUDIO:\n\nCodec                           Language        Bitrate         Description     \n-----                           --------        -------         -----------     \nDolby Digital Audio             Russian         192 kbps        2.0 / 48 kHz / 192 kbps / DN -4dB\nDTS-HD Master Audio             English         1689 kbps       2.0 / 48 kHz / 1689 kbps / 16-bit (DTS Core: 2.0 / 48 kHz / 1509 kbps / 16-bit)\nDolby Digital Audio             German          448 kbps        2.0 / 48 kHz / 448 kbps / DN -4d\nFILES:\n\nName            Time In         Length          Size            Total Bitrate   \n----            -------         ------          ----            -------------   \n00004.M2TS      0:00:00.000     0:50:02.080     10 940 209 152  29 154          \n00009.M2TS      0:50:02.080     0:00:01.080     288 768         2 139\n\nPLAYLIST REPORT:\n\nName:                   01003.MPLS\nLength:                 0:48:53.160 (h:m:s.ms)\nSize:                   10 646 962 176 bytes\nTotal Bitrate:          29,04 Mbps\n\nVIDEO:\n\nCodec                   Bitrate             Description     \n-----                   -------             -----------     \nMPEG-4 AVC Video        25626 kbps          1080i / 25 fps / 16:9 / High Profile 4.1\n\nAUDIO:\n\nCodec                           Language        Bitrate         Description     \n-----                           --------        -------         -----------     \nDolby Digital Audio             Russian         192 kbps        2.0 / 48 kHz / 192 kbps / DN -4dB\nDTS-HD Master Audio             English         1670 kbps       2.0 / 48 kHz / 1670 kbps / 16-bit (DTS Core: 2.0 / 48 kHz / 1509 kbps / 16-bit)\nDolby Digital Audio             German          448 kbps        2.0 / 48 kHz / 448 kbps / DN -4d\n\nFILES:\n\nName            Time In         Length          Size            Total Bitrate   \n----            -------         ------          ----            -------------   \n00003.M2TS      0:00:00.000     0:48:52.080     10 646 673 408  29 049          \n00009.M2TS      0:48:52.080     0:00:01.080     288 768         2 139","torrent":{"xt":"urn:btih:1ad04433e65e40977673037b893251048cd5ab10","amp;dn":"BBC+-+Journey+to+the+Center+of+the+Earth+The+Restless+Planet+201","amp;tr":["udp%3A%2F%2Ftracker.openbittorrent.com%3A80","udp%3A%2F%2Fopen.demonii.com%3A1337","udp%3A%2F%2Ftracker.coppersurfer.tk%3A6969","udp%3A%2F%2Fexodus.desync.com%3A6969"],"infoHash":"1ad04433e65e40977673037b893251048cd5ab10","infoHashBuffer":{"type":"Buffer","data":[26,208,68,51,230,94,64,151,118,115,3,123,137,50,81,4,140,213,171,16]},"announce":[],"urlList":[]}}